<svg xmlns="http://www.w3.org/2000/svg" xmlns:xlink="http://www.w3.org/1999/xlink" width="16.969" height="19.467" viewBox="0 0 16.969 19.467"><defs><clipPath id="a"><rect width="16.969" height="19.467" fill="#f5f7f2"/></clipPath></defs><g transform="translate(0 0)"><g transform="translate(0 0)" clip-path="url(#a)"><path d="M13.012,8.832a4.416,4.416,0,1,1,4.416-4.416,4.421,4.421,0,0,1-4.416,4.416m0-7.412a3,3,0,1,0,3,3,3,3,0,0,0-3-3" transform="translate(-4.527 0)" fill="#f5f7f2"/><path d="M16.919,30.494H.05L.012,29.7C.006,29.608,0,29.516,0,29.421a8.484,8.484,0,0,1,16.969,0c0,.095-.006.187-.012.28ZM1.428,29.074H15.541a7.065,7.065,0,0,0-14.112,0" transform="translate(0 -11.027)" fill="#f5f7f2"/></g></g></svg>